<?xml version="1.0" encoding="UTF-8"?>
<svg width="512" height="512" viewBox="0 0 512 512" fill="none" xmlns="http://www.w3.org/2000/svg">
  <!-- 背景圆形 -->
  <circle cx="256" cy="256" r="240" fill="#222129"/>
  <circle cx="256" cy="256" r="220" fill="none" stroke="#4169E1" stroke-width="16"/>
  
  <!-- 游戏手柄简化图标 - 更现代化设计 -->
  <rect x="154" y="186" width="204" height="110" rx="30" fill="#4169E1"/>
  
  <!-- 手柄突起部分 -->
  <rect x="154" y="216" width="40" height="50" rx="15" fill="#4169E1"/>
  <rect x="318" y="216" width="40" height="50" rx="15" fill="#4169E1"/>
  
  <!-- D-pad -->
  <rect x="184" y="231" width="40" height="16" rx="6" fill="#222129"/>
  <rect x="196" y="219" width="16" height="40" rx="6" fill="#222129"/>
  
  <!-- 按钮 - 更鲜艳的颜色 -->
  <circle cx="304" cy="231" r="14" fill="#FF5252"/>
  <circle cx="284" cy="251" r="14" fill="#43A047"/>
  <circle cx="284" cy="211" r="14" fill="#FFC107"/>
  <circle cx="324" cy="231" r="14" fill="#9C27B0"/>
  
  <!-- XXgames 文字路径 - 更粗的字体增加可读性 -->
  <path d="M130.586 340L147.906 310.625L165.18 340H176.219L153.461 302.781L174.688 267.406H163.602L148.648 293.344L133.695 267.406H122.609L143.789 302.688L121.078 340H130.586Z" fill="white" stroke="white" stroke-width="1"/>
  <path d="M181.984 340L199.305 310.625L216.578 340H227.617L204.859 302.781L226.086 267.406H215L200.047 293.344L185.094 267.406H174.008L195.188 302.688L172.477 340H181.984Z" fill="white" stroke="white" stroke-width="1"/>
  <path d="M245.453 340.703C250.797 340.703 255.094 338.844 257.703 335.031V340H266.375V289.375H257.703V305.156C255.094 301.344 250.75 299.484 245.453 299.484C241.172 299.484 237.5 300.828 234.656 303.438C231.812 306.047 230.328 309.906 230.328 315V325.188C230.328 330.281 231.812 334.141 234.656 336.75C237.5 339.359 241.172 340.703 245.453 340.703ZM248.391 333.312C245.688 333.312 243.516 332.406 241.922 330.594C240.328 328.781 239.516 326.312 239.516 323.234V316.953C239.516 313.875 240.328 311.406 241.922 309.594C243.516 307.781 245.688 306.875 248.391 306.875C250.953 306.875 253.078 307.625 254.719 309.125C256.359 310.625 257.188 312.625 257.188 315.141V325.047C257.188 327.562 256.359 329.562 254.719 331.062C253.078 332.562 250.953 333.312 248.391 333.312Z" fill="white" stroke="white" stroke-width="1"/>
  <path d="M293.781 340.703C298.219 340.703 301.875 339.359 304.719 336.594C307.562 333.828 308.984 330.141 308.984 325.562V325.328H300.266V326.234C300.266 328.672 299.453 330.672 297.797 332.234C296.141 333.797 294.016 334.562 291.359 334.562C288.328 334.562 286 333.469 284.406 331.281C282.812 329.094 282 325.781 282 321.344V318.547C282 314.109 282.812 310.797 284.406 308.609C286 306.422 288.297 305.328 291.359 305.328C294.016 305.328 296.141 306.094 297.797 307.656C299.453 309.219 300.266 311.219 300.266 313.656V314.562H308.984V314.328C308.984 309.75 307.562 306.062 304.719 303.297C301.875 300.531 298.219 299.188 293.781 299.188C288.594 299.188 284.625 300.875 281.953 304.25C279.281 307.625 277.938 312.562 277.938 319.094V320.797C277.938 327.328 279.281 332.266 281.953 335.641C284.625 339.016 288.594 340.703 293.781 340.703Z" fill="white" stroke="white" stroke-width="1"/>
  <path d="M335.438 340.703C340.625 340.703 344.594 339.016 347.344 335.641C350.094 332.266 351.453 327.328 351.453 320.797V319.094C351.453 312.562 350.094 307.625 347.344 304.25C344.594 300.875 340.625 299.188 335.438 299.188C330.25 299.188 326.281 300.875 323.531 304.25C320.781 307.625 319.422 312.562 319.422 319.094V320.797C319.422 327.328 320.781 332.266 323.531 335.641C326.281 339.016 330.25 340.703 335.438 340.703ZM335.438 334.562C332.406 334.562 330.094 333.469 328.5 331.281C326.906 329.094 326.094 325.781 326.094 321.344V318.547C326.094 314.109 326.906 310.797 328.5 308.609C330.094 306.422 332.406 305.328 335.438 305.328C338.5 305.328 340.812 306.422 342.406 308.609C344 310.797 344.812 314.109 344.812 318.547V321.344C344.812 325.781 344 329.094 342.406 331.281C340.812 333.469 338.5 334.562 335.438 334.562Z" fill="white" stroke="white" stroke-width="1"/>
  <path d="M376.961 340.703C380.93 340.703 384.07 339.719 386.352 337.797C388.633 335.875 389.82 333.188 389.82 329.812V328.625H381.57V329.344C381.57 331.031 380.93 332.359 379.68 333.328C378.43 334.297 376.82 334.797 374.805 334.797C372.367 334.797 370.492 334.016 369.164 332.453C367.836 330.891 367.148 328.422 367.039 325.062H390.164V321.016C390.164 314.953 388.93 310.328 386.492 307.141C384.055 303.953 380.32 302.359 375.305 302.359C370.008 302.359 366.039 303.953 363.43 307.141C360.82 310.328 359.508 315.016 359.508 321.203V321.969C359.508 328.281 360.82 333.031 363.43 336.219C366.039 339.406 370.695 340.703 376.961 340.703ZM382.727 320.016H367.133C367.32 317.047 368.023 314.797 369.258 313.266C370.492 311.734 372.43 310.969 375.07 310.969C377.648 310.969 379.586 311.656 380.914 313.031C382.242 314.406 382.914 316.734 382.914 320.016H382.727Z" fill="white" stroke="white" stroke-width="1"/>
  <path d="M409.547 340.703C413.766 340.703 416.984 339.531 419.141 337.266C421.297 335 422.422 331.859 422.422 327.844V327.516H414.453V328.391C414.453 330.703 413.953 332.531 412.969 333.875C411.984 335.219 410.453 335.891 408.453 335.891C406.047 335.891 404.25 334.859 403.031 332.828C401.812 330.797 401.203 327.766 401.203 323.766V318.641C401.203 314.578 401.797 311.516 403 309.484C404.203 307.453 406 306.453 408.453 306.453C410.422 306.453 411.922 307.047 412.969 308.266C414.016 309.484 414.531 311.141 414.531 313.234V314.219H422.5V313.891C422.5 309.828 421.375 306.656 419.141 304.391C416.906 302.125 413.75 301 409.688 301C404.844 301 401.203 302.656 398.797 305.938C396.391 309.219 395.172 314.109 395.172 320.625V321.781C395.172 328.297 396.391 333.188 398.797 336.469C401.203 339.75 404.766 340.703 409.547 340.703Z" fill="white" stroke="white" stroke-width="1"/>
  
  <!-- 光晕效果 -->
  <circle cx="256" cy="256" r="230" fill="url(#paint0_radial)" fill-opacity="0.2"/>
  
  <!-- 渐变定义 -->
  <defs>
    <radialGradient id="paint0_radial" cx="0" cy="0" r="1" gradientUnits="userSpaceOnUse" gradientTransform="translate(256 256) rotate(90) scale(230)">
      <stop stop-color="#4169E1" stop-opacity="0.8"/>
      <stop offset="1" stop-color="#4169E1" stop-opacity="0"/>
    </radialGradient>
  </defs>
</svg> 